<svg width="24" height="24" viewBox="0 0 24 24" fill="none" xmlns="http://www.w3.org/2000/svg">
<path d="M13.4722 8L13.0996 8.33346L13.2487 8.5H13.4722V8ZM9 6.5C10.6289 6.5 12.0918 7.20745 13.0996 8.33346L13.8448 7.66654C12.6553 6.33755 10.9251 5.5 9 5.5V6.5ZM3.5 12C3.5 8.96243 5.96243 6.5 9 6.5V5.5C5.41015 5.5 2.5 8.41015 2.5 12H3.5ZM9 17.5C5.96243 17.5 3.5 15.0376 3.5 12H2.5C2.5 15.5899 5.41015 18.5 9 18.5V17.5ZM16 17.5H9V18.5H16V17.5ZM20.5 13C20.5 15.4853 18.4853 17.5 16 17.5V18.5C19.0376 18.5 21.5 16.0376 21.5 13H20.5ZM16 8.5C18.4853 8.5 20.5 10.5147 20.5 13H21.5C21.5 9.96243 19.0376 7.5 16 7.5V8.5ZM13.4722 8.5H16V7.5H13.4722V8.5Z" fill="#7BB498"/>
<path d="M7.68227 17.8535C6.75449 17.6447 5.88965 17.2182 5.15905 16.6095C4.42845 16.0007 3.85303 15.2269 3.48023 14.3521C3.10743 13.4772 2.94793 12.5262 3.01489 11.5776C3.08184 10.6289 3.37334 9.70979 3.86533 8.89595C4.35732 8.08211 5.03571 7.39687 5.84458 6.89673C6.65345 6.3966 7.56961 6.0959 8.51753 6.01943C9.46545 5.94296 10.418 6.09291 11.2965 6.45691C12.1751 6.82091 12.9546 7.38854 13.5707 8.11299" stroke="#7BB498"/>
</svg>
