<svg width="24" height="24" viewBox="0 0 24 24" fill="none" xmlns="http://www.w3.org/2000/svg">
<path d="M9 10L12.2581 12.4436C12.6766 12.7574 13.2662 12.6957 13.6107 12.3021L20 5" stroke="#B5BAC3" stroke-width="1.5" stroke-linecap="round"/>
<path d="M20.8022 10.1237C21.2243 12.1037 20.9665 14.1681 20.0705 15.9834C19.1745 17.7987 17.6926 19.259 15.8643 20.1282C14.036 20.9974 11.968 21.2248 9.99451 20.7737C8.021 20.3226 6.2572 19.2193 4.9881 17.6421C3.719 16.0649 3.0187 14.1058 3.00037 12.0815C2.98203 10.0572 3.64672 8.08579 4.88705 6.48584C6.12738 4.88589 7.8709 3.75083 9.83592 3.26405C11.8009 2.77728 13.8727 2.96721 15.7164 3.80317" stroke="#B5BAC3" stroke-width="1.5" stroke-linecap="round"/>
</svg>
