<svg width="28" height="28" viewBox="0 0 24 24" fill="none" xmlns="http://www.w3.org/2000/svg">
<path d="M20.25 12C20.25 16.5187 16.3712 20.25 11.5 20.25C6.62878 20.25 2.75 16.5187 2.75 12C2.75 7.48134 6.62878 3.75 11.5 3.75C16.3712 3.75 20.25 7.48134 20.25 12Z" stroke="#50545F" stroke-width="1.5"/>
<path d="M13 17C13 17.5523 12.5523 18 12 18C11.4477 18 11 17.5523 11 17C11 16.4477 11.4477 16 12 16C12.5523 16 13 16.4477 13 17Z" fill="#50545F"/>
<path d="M12 13.5L13.2918 12.8541C14.3387 12.3307 15 11.2606 15 10.0902V10C15 8.34315 13.6569 7 12 7V7C10.3431 7 9 8.34315 9 10V10" stroke="#50545F" stroke-width="1.5" stroke-linecap="round"/>
</svg>
