<svg width="24" height="24" viewBox="0 0 24 24" fill="none" xmlns="http://www.w3.org/2000/svg">
<path d="M20 13.0002C20 11.1146 20 10.1718 19.4142 9.58603C18.8284 9.00024 17.8856 9.00024 16 9.00024H8C6.11438 9.00024 5.17157 9.00024 4.58579 9.58603C4 10.1718 4 11.1146 4 13.0002V15.0002C4 17.8287 4 19.2429 4.87868 20.1216C5.75736 21.0002 7.17157 21.0002 10 21.0002H14C16.8284 21.0002 18.2426 21.0002 19.1213 20.1216C20 19.2429 20 17.8287 20 15.0002V13.0002Z" stroke="#BCC0C7" stroke-width="1.5"/>
<path d="M7.50006 9.00006L7.42249 8.37947C7.16356 6.30788 8.09573 4.2675 9.83124 3.10709V3.10709C11.8977 1.72543 14.6327 1.89573 16.5118 3.52305L17.3301 4.23174" stroke="#BCC0C7" stroke-width="1.5" stroke-linecap="round"/>
</svg>
